<svg width="146" height="52" viewBox="0 0 146 52" fill="none" xmlns="http://www.w3.org/2000/svg">
<g filter="url(#filter0_d_13_64)">
<path d="M14.824 35H32.488V29.144H22.376V12.6H14.824V35ZM41.358 35.32C47.31 35.32 51.534 31.544 51.534 26.232C51.534 20.92 47.31 17.176 41.358 17.176C35.438 17.176 31.182 20.92 31.182 26.232C31.182 31.544 35.438 35.32 41.358 35.32ZM41.358 29.688C39.758 29.688 38.51 28.504 38.51 26.232C38.51 23.96 39.758 22.808 41.358 22.808C42.958 22.808 44.206 23.96 44.206 26.232C44.206 28.504 42.958 29.688 41.358 29.688ZM60.9655 35.32C65.2215 35.32 68.4215 33.368 69.5735 30.136L63.9735 27.384C63.2375 29.016 62.1815 29.688 60.9335 29.688C59.3015 29.688 57.9575 28.536 57.9575 26.232C57.9575 23.96 59.3015 22.808 60.9335 22.808C62.1815 22.808 63.2375 23.48 63.9735 25.112L69.5735 22.36C68.4215 19.128 65.2215 17.176 60.9655 17.176C54.9175 17.176 50.6295 20.92 50.6295 26.232C50.6295 31.576 54.9175 35.32 60.9655 35.32Z" fill="#CC2121"/>
<path d="M77.581 35.512C84.525 35.512 88.013 32.056 88.013 27.96C88.013 19.704 75.629 21.944 75.629 19.256C75.629 18.488 76.333 17.848 78.541 17.848C80.493 17.848 82.573 18.392 84.781 19.512L87.053 14.04C84.717 12.728 81.613 12.088 78.605 12.088C71.661 12.088 68.173 15.48 68.173 19.64C68.173 27.992 80.557 25.72 80.557 28.536C80.557 29.304 79.789 29.752 77.645 29.752C75.181 29.752 72.365 28.952 70.253 27.704L67.821 33.208C70.061 34.584 73.837 35.512 77.581 35.512ZM98.9643 29.368C98.4843 29.688 97.9083 29.848 97.3323 29.848C96.4683 29.848 95.8283 29.24 95.8283 28.152V23.736H99.4123V18.456H95.8283V13.56H88.5963V18.456H86.1963V23.736H88.5963V28.216C88.5963 33.048 91.4123 35.32 96.2443 35.32C97.9403 35.32 99.5723 35.032 100.692 34.392L98.9643 29.368ZM108.115 17.176C105.395 17.176 102.291 17.88 100.243 19.16L102.547 23.928C103.699 23.064 105.459 22.552 107.027 22.552C109.075 22.552 110.099 23.256 110.323 24.6H107.411C101.971 24.6 99.411 26.488 99.411 29.88C99.411 32.888 101.619 35.32 105.907 35.32C108.371 35.32 110.035 34.456 110.867 32.696V35H117.587V25.592C117.587 19.768 114.131 17.176 108.115 17.176ZM108.083 30.968C106.995 30.968 106.355 30.36 106.355 29.56C106.355 28.6 107.027 28.088 108.563 28.088H110.355V29.304C109.971 30.456 109.075 30.968 108.083 30.968ZM125.352 19.384V17.496H118.472V35H125.704V27.224C125.704 24.44 127.24 23.448 129.416 23.448C129.928 23.448 130.376 23.48 131.016 23.576V17.176C128.584 17.176 126.632 17.912 125.352 19.384Z" fill="#8589E4"/>
</g>
<defs>
<filter id="filter0_d_13_64" x="0.823975" y="0.0880127" width="144.193" height="51.424" filterUnits="userSpaceOnUse" color-interpolation-filters="sRGB">
<feFlood flood-opacity="0" result="BackgroundImageFix"/>
<feColorMatrix in="SourceAlpha" type="matrix" values="0 0 0 0 0 0 0 0 0 0 0 0 0 0 0 0 0 0 127 0" result="hardAlpha"/>
<feOffset dy="2"/>
<feGaussianBlur stdDeviation="7"/>
<feComposite in2="hardAlpha" operator="out"/>
<feColorMatrix type="matrix" values="0 0 0 0 0.9375 0 0 0 0 0.9375 0 0 0 0 0.9375 0 0 0 0.25 0"/>
<feBlend mode="normal" in2="BackgroundImageFix" result="effect1_dropShadow_13_64"/>
<feBlend mode="normal" in="SourceGraphic" in2="effect1_dropShadow_13_64" result="shape"/>
</filter>
</defs>
</svg>
